<svg xmlns="http://www.w3.org/2000/svg" viewBox="0 0 386.19 385.72"><defs><style>.cls-1{fill:#182f54;}.cls-2{fill:#6597c0;}.cls-3{fill:#193055;}.cls-4{fill:#fdfdfd;}.cls-5{fill:#1b3053;}.cls-6{fill:#1e3255;}.cls-7{fill:#213356;}.cls-8{fill:#172d52;}.cls-9{fill:#7aa8ca;}.cls-10{fill:#e6bb63;}.cls-11{fill:#c89928;}.cls-12{fill:#6b9fc7;}.cls-13{fill:#f0f2f3;}.cls-14{fill:#c49a30;}.cls-15{fill:#f0f1f1;}.cls-16{fill:#fefefd;}.cls-17{fill:#91b5d5;}.cls-18{fill:#6a9fc8;}.cls-19{fill:#fbf9ef;}.cls-20{fill:#f7f4e5;}.cls-21{fill:#cc9f33;}.cls-22{fill:#f5efdc;}.cls-23{fill:#ebbc60;}.cls-24{fill:#c99d32;}.cls-25{fill:#d0b25f;}.cls-26{fill:#292e51;}.cls-27{fill:#3e2948;}.cls-28{fill:#c9342e;}.cls-29{fill:#cd332c;}</style></defs><g id="图层_2" data-name="图层 2"><g id="图层_1-2" data-name="图层 1"><path class="cls-1" d="M193.2,0C299.58-.42,386,87.08,386.19,192.42c.17,105.14-85.36,193.09-192.72,193.3C85.65,385.92,0,297.67,0,192.67,0,87.15,86.72-.57,193.2,0ZM378.51,193.13C378.7,91.58,295.43,7.65,194.29,7.44,91.67,7.24,7.77,90.27,7.59,192.2S90.31,377.6,192.12,377.86C294.91,378.12,378.32,295.45,378.51,193.13Z"/><path class="cls-2" d="M378.51,193.13c-.19,102.32-83.6,185-186.39,184.73C90.31,377.6,7.41,294.19,7.59,192.2S91.67,7.24,194.29,7.44C295.43,7.65,378.7,91.58,378.51,193.13Zm-4.24.14c.7-97.16-77.77-181-180.71-181.65C93.7,11,11.48,92.91,11.77,192.82c.3,102.05,83.06,180.79,180.35,181C292.77,374,374.12,293.36,374.27,193.27Z"/><path class="cls-3" d="M374.27,193.27C374.12,293.36,292.77,374,192.12,373.8c-97.29-.19-180-78.93-180.35-181C11.48,92.91,93.7,11,193.56,11.62,296.5,12.29,375,96.11,374.27,193.27ZM20,192.8c0,95.53,77.5,172.87,173.22,172.9,95.33,0,172.8-77.36,172.84-172.68A172.73,172.73,0,0,0,193.19,19.91C97.6,19.81,20,97.29,20,192.8Z"/><path class="cls-4" d="M20,192.8c0-95.51,77.6-173,173.19-172.89A172.73,172.73,0,0,1,366.06,193c0,95.32-77.51,172.71-172.84,172.68C97.5,365.67,20,288.33,20,192.8Zm47.79-76.06,15.14,7.4,2.91-5.77-26.07-13.8c-3.55,3.37-4.28,6.76-1.22,10.87,1.7,2.28,2.84,5,4.63,8.2-4.19.23-7.49.73-10.75.53-4.83-.3-5.33,3.53-7.26,6.8L72,145l2.69-5.89-16.24-8.85,14.21-1.79-5.45-11.21C67.43,117.1,67.61,116.93,67.79,116.74ZM195.06,73.9C168.3,74,145.28,81,124.8,95.59c-5.13,3.66-10.15,6.72-16.57,6.87-4,.1-5.51,2.51-6,6.24-.7,5.06-1.9,9.76-5.15,14.21C78.28,148.61,70.5,177.49,75.38,209c7.26,46.87,33.78,78.76,77.93,95.69,9.83,3.77,20.55,5.16,30.6,8.45,6.15,2,11.69,2.48,17.7-.09a48.53,48.53,0,0,1,11-2.94c86.3-14.46,128.09-113.9,77.79-185.53-3.82-5.43-7-10.76-7.54-17.43-.21-2.58-1.49-3.84-4.28-4.4-4.28-.86-9.17-1.47-12.47-4C244.54,82.5,220.38,74.28,195.06,73.9Zm-57.49-.5L122.18,48.14l-5.54,3.6,9.2,15.46c-6.67-2.64-12-4.49-17-6.85-3.77-1.75-6.5-1-9.21,2.2L115,87.76l5.54-3.5-8.67-14.57a85.74,85.74,0,0,1,16.9,5.66C132.25,76.91,135.05,76.8,137.57,73.4ZM307,129.78l8.22-3.78c3.69,3,2.16,5.87.07,8.64-3,4-3.53,7.89.75,11.92l6.06-10.47c4.44,3.31,8.79,3.22,13,.13,3.26-2.42,4.78-5.88,3.35-9.66-2.07-5.5-4.8-10.75-7.32-16.26l-27,13.54ZM182.68,44.06c-.17-3.82-.35-7.56-.54-11.61l-5.88.36V63l7-.39V50.69h12V62.41l6-.33V32.49h-6.87V44.06Zm36.07,14.83c.38-2,.71-3.67,1-5,4.62-1.86,11.45,5.84,13.65-4l-12.29-3c.6-2.14,1.07-3.82,1.49-5.36l15.6,3c.38-2.22.66-3.91,1-5.74l-22.1-4.77c-2.17,10-4.23,19.5-6.39,29.44l22.41,4.82c.48-2.15.86-3.84,1.28-5.75Zm89.62,31.63,10.4,12.13,4.54-3.87L308.67,81.42l-23,19.36,14.74,17.58,4.58-3.89L294.58,102l4.63-3.67c8.13,8.87,8.13,8.87,12.78,5.79l-8-9.86Zm-198.1.15c-9.39-3.53-18.34-7-27.34-10.24-3.76-1.36-8,1.61-6.68,4.76,3.9,9.54,8.2,18.92,12.41,28.5,4.56-4,4.56-4,2.25-11.54a89.53,89.53,0,0,1,6.43-6.8c1-.85,3.16-1.56,4.06-1C105.88,96.86,108,94.32,110.27,90.67Zm60.06,235c-8.58-6.76-19.19-6.1-24.87,1.18A16.15,16.15,0,0,0,148,349.16a15.84,15.84,0,0,0,22.29-2.54c-1.23-1.25-2.48-2.53-3.64-3.73-7,4.13-11.44,4.24-14.75.58a10,10,0,0,1-.54-12.84c3-4,7.58-4.2,15-.36ZM269.91,55.57c-3.59-5.65-7.84-9.76-14.24-9.1a10.89,10.89,0,0,0-7.45,5.16c-1.08,2.17-.1,6,1.15,8.5s4.1,3.8,5.89,6c.85,1,.85,2.77,1.24,4.19-1.5.1-3.42.84-4.43.19-2.68-1.76-5-4.11-7.7-6.47l-4.73,2.31c3.5,6.47,8.14,10.52,15.26,11,3.92.28,6.58-1.69,8.33-5.12s1-6.48-1.43-9.13c-1.92-2.05-4.25-3.73-6.1-5.84-.81-.92-.85-2.51-1.24-3.8,1.47-.15,3.3-.92,4.33-.31,2.33,1.37,4.27,3.41,6.44,5.24ZM162.85,39c-7.84-4.51-18.19-1.53-22.25,6.29-3.78,7.26-.67,17.36,6.5,21.13a16,16,0,0,0,21.77-7.72L164,56c-5,5.7-9,7-13.25,4.64C147,58.55,145,53.35,146.39,49c1.48-4.8,4.83-6,14.34-5.1ZM218.5,322.07c5.28,9.64,14.25,17.43,11.14,29.65h7.49c-3.51-12.57,5.69-20.31,10.81-29.65-5.06-1.67-8.45-.47-10.48,4.42-1,2.3-2.62,4.31-4,6.49C228.63,328.72,228.8,318.64,218.5,322.07Zm64.69-254L268.92,87l5.39,4,14.48-18.88,7.2,5.48,3.72-5-19.82-15-3.54,4.9ZM215,321.8H190.2v6.09h9.12v23.76h6.89V327.73H215ZM53.42,203c5.92.21,7.88-2.42,6.37-8.34-.26-1,.14-2.22-.06-3.27-.37-1.93-.52-5.1-1.54-5.45a13.8,13.8,0,0,0-8.26-.27c-1.23.41-1.61,3.69-2.16,5.73-.27,1,.23,2.21-.08,3.17C46,199.86,47.88,202.77,53.42,203ZM183.47,321.85h-6.22v29.83h6.22ZM330.62,196.54l.25,1.44-9.69,1.86c5.19,3.63,8.89,3.88,11.63,1.62,3-2.51,4.18-9.52,2.12-13.37-1.93-3.61-5-4.63-8.8-3.45-3.58,1.11-4.9,3.8-4.24,7.35.7,3.84,3.6,4.77,7,4.77A12.65,12.65,0,0,0,330.62,196.54Zm20-12.35a17.93,17.93,0,0,0-3.44,2.32,95.73,95.73,0,0,0-6.51,7.44c-.74.94-1.66,2.83-1.28,3.31.76.94,2.34,1.26,3.63,1.72,1.67.6,3.43,1,5.08,1.66a23.74,23.74,0,0,1,3.21,1.9c1.13-2,3.38-4.07,3.15-5.86C353.93,192.75,352.17,189,350.6,184.19ZM33.47,186.78c4.88,3.51,4.88,3.51,4.88,9.08a30.46,30.46,0,0,0,.12,5c.12.73,1.33,1.95,1.66,1.83.87-.3,2.16-1.19,2.18-1.88.18-5.4.1-10.81.1-17.11Z"/><path class="cls-5" d="M195.06,73.9c25.32.38,49.48,8.6,71.05,24.87,3.3,2.49,8.19,3.1,12.47,4,2.79.56,4.07,1.82,4.28,4.4.56,6.67,3.72,12,7.54,17.43,50.3,71.63,8.51,171.07-77.79,185.53a48.53,48.53,0,0,0-11,2.94c-6,2.57-11.55,2.09-17.7.09-10-3.29-20.77-4.68-30.6-8.45C109.16,287.74,82.64,255.85,75.38,209c-4.88-31.49,2.9-60.37,21.68-86.07,3.25-4.45,4.45-9.15,5.15-14.21.51-3.73,2-6.14,6-6.24,6.42-.15,11.44-3.21,16.57-6.87C145.28,81,168.3,74,195.06,73.9Zm37.1,215h0l1.23-1,11.71-9.4,1.79-1.72,1.2-1.14.83-.81.14-.16c.93-.94,1.86-1.89,2.8-2.83l5.22-6.13,1.32-1.77,6.77-9.82L266,253a.42.42,0,0,0,.24-.55l.91-1.45q1.53-2.86,3.07-5.73l1.29-3-.1.06.78-1.25q1-2.52,2.08-5a.49.49,0,0,0,.25-.65l-.13-.17,2.59-7.18.24-1.65.72-2.32.26-1.83c.27-1.39.53-2.79.8-4.19l.16-1.9.78-7c.09-1.9.17-3.79.26-5.69l.76-11.28q0-9.53,0-19-.39-6.58-.8-13.16c-.05-.94-.09-1.87-.14-2.81l-.81-9-.21-3c-.27-1.74-.55-3.48-.82-5.21l-.23-2.79-.8-4.1-.18-1.88c-.25-1.13-.5-2.27-.76-3.41a.31.31,0,0,0-.05-.53c-.34-1.73-.67-3.46-1-5.2l-.18-1.84c-.28-1-.56-2-.85-3a1,1,0,0,0-.13-.94c-.25-.83-.5-1.66-.76-2.48L271.61,110l-2.53-.73-1.87-.18-4.12-.81-1.92-.16-4.06-.81-3.82-.26-6.19-.81-3.45-.21c-.43-.23-.84-.65-1.28-.67Q217.7,104.31,193,103.3a413.25,413.25,0,0,0-75.9,5.64c-3.15.52-4.71,1.53-5.14,4.75-2.47,18.4-6.28,36.73-7.25,55.2A262.07,262.07,0,0,0,107,220.05c3.87,26.5,18.86,47.17,39.3,63.85a129.32,129.32,0,0,0,46.73,24.64L227.46,292l1.68-1.05,1.36-1a.58.58,0,0,0,.65-.3ZM126.22,276v0a6.39,6.39,0,0,0-.73-1.75c-20.51-23.89-29.18-52-29.15-83,0-15.74.44-31.48.69-47.22l.43-8.64C80,160.31,74.1,203,90.65,238.78c11.22,24.26,28.66,42.51,52.45,54.35l.93-.94-13.78-12.14Zm128.66,4.7-1.7,1.42-14,11.82c22.2-6.63,56.32-37,64.41-80.64,5-26.74-4.13-72.33-16.64-79.09.47,2.81.9,5.36,1.32,7.9.23,18.59.86,37.19.58,55.77-.38,25.07-7.77,48-22.7,68.39-3.61,4.92-7.53,9.61-11.31,14.41ZM142.16,98c14.27-.59,28.54-1.72,42.8-1.65,19.75.1,39.5,1.09,59.26,1.7l10,1.42c-35.39-25.8-90.09-24.07-121.77-.13Z"/><path class="cls-6" d="M67.24,117.28l5.45,11.21-14.21,1.79,16.24,8.85L72,145,45.17,131c1.93-3.27,2.43-7.1,7.26-6.8,3.26.2,6.56-.3,10.75-.53-1.79-3.22-2.93-5.92-4.63-8.2-3.06-4.11-2.33-7.5,1.22-10.87l26.07,13.8-2.91,5.77-15.14-7.39-1.07-.3Z"/><path class="cls-6" d="M137.57,73.4c-2.52,3.4-5.32,3.51-8.81,1.95a85.74,85.74,0,0,0-16.9-5.66l8.67,14.57L115,87.76,99.6,62.55c2.71-3.21,5.44-3.95,9.21-2.2,5.06,2.36,10.36,4.21,17,6.85l-9.2-15.46,5.54-3.6Z"/><path class="cls-7" d="M307,129.78l-2.89-5.94,27-13.54c2.52,5.51,5.25,10.76,7.32,16.26,1.43,3.78-.09,7.24-3.35,9.66-4.18,3.09-8.53,3.18-13-.13L316,146.56c-4.28-4-3.78-7.88-.75-11.92,2.09-2.77,3.62-5.68-.07-8.64Zm13-6.41a111.85,111.85,0,0,0,7.84,8.39c.36.33,3.82-1.58,3.74-2.18a95,95,0,0,0-2.45-10.76Z"/><path class="cls-6" d="M182.68,44.06h11.63V32.49h6.87V62.08l-6,.33V50.69h-12v11.9l-7,.39V32.81l5.88-.36C182.33,36.5,182.51,40.24,182.68,44.06Z"/><path class="cls-7" d="M218.75,58.89l15.6,3.67c-.42,1.91-.8,3.6-1.28,5.75l-22.41-4.82c2.16-9.94,4.22-19.44,6.39-29.44l22.1,4.77c-.31,1.83-.59,3.52-1,5.74l-15.6-3c-.42,1.54-.89,3.22-1.49,5.36l12.29,3c-2.2,9.79-9,2.09-13.65,4C219.46,55.22,219.13,56.93,218.75,58.89Z"/><path class="cls-6" d="M308.37,90.52,304,94.24l8,9.86c-4.65,3.08-4.65,3.08-12.78-5.79L294.58,102,305,114.47l-4.58,3.89-14.74-17.58,23-19.36,14.64,17.36-4.54,3.87Z"/><path class="cls-7" d="M110.27,90.67c-2.26,3.65-4.39,6.19-8.87,3.64-.9-.52-3.09.19-4.06,1a89.53,89.53,0,0,0-6.43,6.8c2.31,7.59,2.31,7.59-2.25,11.54-4.21-9.58-8.51-19-12.41-28.5C75,82,79.17,79.07,82.93,80.43,91.93,83.7,100.88,87.14,110.27,90.67ZM87.78,96.49,93,90.92l-9.13-3.39C85.39,91.07,86.49,93.57,87.78,96.49Z"/><path class="cls-7" d="M170.33,325.66l-4,4.61c-7.43-3.84-12-3.67-15,.36a10,10,0,0,0,.54,12.84c3.31,3.66,7.73,3.55,14.75-.58,1.16,1.2,2.41,2.48,3.64,3.73A15.84,15.84,0,0,1,148,349.16a16.15,16.15,0,0,1-2.53-22.32C151.14,319.56,161.75,318.9,170.33,325.66Z"/><path class="cls-6" d="M269.91,55.57l-4.68,2.81c-2.17-1.83-4.11-3.87-6.44-5.24-1-.61-2.86.16-4.33.31.39,1.29.43,2.88,1.24,3.8,1.85,2.11,4.18,3.79,6.1,5.84,2.48,2.65,3.17,5.71,1.43,9.13s-4.41,5.4-8.33,5.12c-7.12-.51-11.76-4.56-15.26-11L244.37,64c2.73,2.36,5,4.71,7.7,6.47,1,.65,2.93-.09,4.43-.19-.39-1.42-.39-3.16-1.24-4.19-1.79-2.16-4.7-3.6-5.89-6s-2.23-6.33-1.15-8.5a10.89,10.89,0,0,1,7.45-5.16C262.07,45.81,266.32,49.92,269.91,55.57Z"/><path class="cls-7" d="M162.85,39l-2.12,4.86c-9.51-.91-12.86.3-14.34,5.1-1.35,4.39.61,9.59,4.4,11.67C155.05,63,159,61.69,164,56l4.83,2.71a16,16,0,0,1-21.77,7.72c-7.17-3.77-10.28-13.87-6.5-21.13C144.66,37.47,155,34.49,162.85,39Z"/><path class="cls-7" d="M218.5,322.07c10.3-3.43,10.13,6.65,15,10.91,1.37-2.18,3-4.19,4-6.49,2-4.89,5.42-6.09,10.48-4.42-5.12,9.34-14.32,17.08-10.81,29.65h-7.49C232.75,339.5,223.78,331.71,218.5,322.07Z"/><path class="cls-6" d="M283.19,68.1l-6.84-5.68,3.54-4.9,19.82,15-3.72,5-7.2-5.48L274.31,91l-5.39-4Z"/><path class="cls-8" d="M215,321.8v5.93h-8.81v23.92h-6.89V327.89H190.2V321.8Z"/><path class="cls-9" d="M53.42,203c-5.54-.2-7.47-3.11-5.73-8.43.31-1-.19-2.18.08-3.17.55-2,.93-5.32,2.16-5.73a13.8,13.8,0,0,1,8.26.27c1,.35,1.17,3.52,1.54,5.45.2,1-.2,2.24.06,3.27C61.3,200.55,59.34,203.18,53.42,203Z"/><path class="cls-8" d="M183.47,321.85v29.83h-6.22V321.85Z"/><path class="cls-9" d="M330.62,196.54a12.65,12.65,0,0,1-1.72.22c-3.41,0-6.31-.93-7-4.77-.66-3.55.66-6.24,4.24-7.35,3.77-1.18,6.87-.16,8.8,3.45,2.06,3.85.91,10.86-2.12,13.37-2.74,2.26-6.44,2-11.63-1.62l9.69-1.86Zm2.63-6.16c-2.35-1.16-3.53-2.22-4.67-2.17-.91,0-1.76,1.43-2.63,2.22,1,.87,1.88,2.32,2.93,2.44S331.05,191.71,333.25,190.38Z"/><path class="cls-9" d="M350.6,184.19c1.57,4.79,3.33,8.56,3.84,12.49.23,1.79-2,3.89-3.15,5.86a23.74,23.74,0,0,0-3.21-1.9c-1.65-.67-3.41-1.06-5.08-1.66-1.29-.46-2.87-.78-3.63-1.72-.38-.48.54-2.37,1.28-3.31a95.73,95.73,0,0,1,6.51-7.44A17.93,17.93,0,0,1,350.6,184.19Z"/><path class="cls-9" d="M33.47,186.78l8.94-3.11c0,6.3.08,11.71-.1,17.11,0,.69-1.31,1.58-2.18,1.88-.33.12-1.54-1.1-1.66-1.83a30.46,30.46,0,0,1-.12-5C38.35,190.29,38.35,190.29,33.47,186.78Z"/><path class="cls-10" d="M193.05,308.54a129.32,129.32,0,0,1-46.73-24.64c-20.44-16.68-35.43-37.35-39.3-63.85a262.07,262.07,0,0,1-2.31-51.16c1-18.47,4.78-36.8,7.25-55.2.43-3.22,2-4.23,5.14-4.75A413.29,413.29,0,0,1,193,103.3l1.2,4.48c-1.65.08-3.3.23-5,.22a416,416,0,0,0-66.41,5.21c-4,.63-6.07,2.35-6.44,6.44-1.91,20.94-4,41.87-5.77,62.83-.36,4.35.48,8.79.76,13.14h38.16c-5.19-9.39-6.66-10.68-15.24-13.58l12.92,1-3.89.34,9.69,4.06c4.47,1.87,9,3.74,13.42,5.64,1,.41,1.88,1,2.81,1.44-3.24-.44-6.48-1-9.74-1.29-2.77-.24-6-1.41-8.1,3H192.3l.85.76,0,5c0,.27,0,.54-.07.81l-25,.34-29.87,0-26,.16,0,1.76h-.11c.91,7.4.86,15.07,2.9,22.14,11.22,38.94,39.47,60.45,76.15,73l2,.8Z"/><path class="cls-11" d="M193.2,202c0-1.66,0-3.32,0-5l13-.81h14l2.69-.3h4.37a52.1,52.1,0,0,0-13.93-4.67c-2.2-.36-4.71,1.14-7.08,1.81l-3.95,1.07-7-.14-4-.13-2.07-1.78-5,.09h0l-4-.44-1.89,0-1.51.67-.26.15-.93.72-.18.09-2.18.66-3.92.47c-.93-.48-1.84-1-2.81-1.44-4.46-1.9-9-3.77-13.42-5.64l-9.69-4.06,3.89-.34,6,1,4.25.68,1.77.2,6.9.4,3.88.25c1,.47,1.93,1.33,2.9,1.34,10.12.12,20.24.19,30.36,0,1.61,0,3.2-1.29,4.8-2l.33-.13.34.08,2.32-.61,5-.35L229,182.51l2.16-.23a15.19,15.19,0,0,1,4.06.86c1.11.57,1.89,1.8,2.81,2.74l-.11.14-.82,1,0,.05c-1.32,1.52-3.23,2.87-3.74,4.62-.31,1.07,1.56,2.76,2.45,4.17l.32.12,3,.24h34l1.84-.7q.12-7.22.25-14.44c.12-.1.35-.23.33-.28a3.77,3.77,0,0,0-.34-.7l-.59-17.14c-.12-1.6-.24-3.2-.35-4.8-.08-1.93-.17-3.85-.25-5.77l-.57-4.16c-.16-2.2-.31-4.39-.47-6.58-.26-1.49-.51-3-.77-4.47-.07-.88-.15-1.76-.22-2.63q-1-6.21-2.05-12.42l0-.37-.54-1.52c-.15-.91-.29-1.82-.43-2.73l-1-3.28.1.11-3.24-1-1.74-.21-4.24-.8L256,112l-3.44-.73-2.54-.22-1.93-.18-3.24-.41-1.11-.21a.47.47,0,0,1-.69-.07c1-1.28-4.34-3.41.56-4.17l3.45.21,6.19.81,3.82.26,4.06.81,1.92.16,4.12.81,1.87.18,2.53.73,1.58,3.65c.26.83.51,1.65.76,2.48a1,1,0,0,1,.13.94c.29,1,.57,2,.85,3l.18,1.84c.34,1.74.67,3.47,1,5.2a.31.31,0,0,1,.05.53c.26,1.14.51,2.28.76,3.41l.18,1.88c.27,1.37.53,2.74.8,4.1.08.93.15,1.86.23,2.79.27,1.73.55,3.47.82,5.21l.21,3,.81,9c0,.94.09,1.87.14,2.81q.4,6.59.8,13.16,0,9.53,0,19-.37,5.64-.76,11.28c-.09,1.9-.17,3.79-.26,5.69l-.78,7c-.06.63-.11,1.27-.16,1.9-.27,1.4-.53,2.8-.8,4.19-.09.61-.17,1.22-.26,1.83l-.72,2.32-.24,1.65c-4.51,1.07-2.56,4.49-2.59,7.18l.13.17-.81.07.56.58q-1.05,2.5-2.08,5l-.78,1.26.1-.06-1.29,3q-1.55,2.87-3.07,5.73c-.3.48-.61,1-.91,1.45a.42.42,0,0,1-.24.55l-.79,1.23L258.39,264l-1.32,1.77-5.22,6.13-2.8,2.83-.14.16-.83.81-1.2,1.14-1.79,1.72L233.38,288l-1.23,1h0l-1,.76a.58.58,0,0,1-.65.3l-1.36,1L227.46,292c-3.61.39-3.19-2.63-3.93-4.66l.25.1,2.33-1.58,1.7-1.1,2.35-1.7,2.05-2.1,4.92-3.06c2.23.06,4.5.15,3.75-3.24v.1l1.17-1,5.13-5.76,8.28-9.11a1.54,1.54,0,0,0,.66-.72l3-4.22.87-1.33a.68.68,0,0,1,.37-.71l.71-1,0-1.1,4.21-6.84.71-1.42a.39.39,0,0,1,.17-.55l.82-1.52q1.2-3.25,2.39-6.52l3.6-13.46L273,218l.23-3,.21-2.13.54-3.16L274,208c0-.33,0-.67.05-1,0-1,.08-2,.11-3l2.05-.3-.05-.64h-2.25l.05,0-.92-.33-23,.36-6-.37c-1-.58-2.07-1.74-3-1.66-4.34.36-8.65,1.07-13,1.66l-5,.38-29-.4Z"/><path class="cls-12" d="M254.87,280.63c3.78-4.8,7.7-9.49,11.31-14.41,14.93-20.34,22.32-43.32,22.7-68.39.28-18.58-.35-37.18-.58-55.77,7.69,13.31,11.56,27.83,12.59,43,1.8,26.45-5.19,50.58-21,71.93C273,266.31,265.3,275,254.87,280.63Z"/><path class="cls-12" d="M97,144c-.25,15.74-.68,31.48-.69,47.22,0,31.06,8.64,59.14,29.15,83a6.39,6.39,0,0,1,.73,1.75c-1.92-1.09-4.12-1.87-5.7-3.32-20.23-18.64-32.31-41.58-34.9-69C83.66,182.79,86.6,162.6,97,144Z"/><path class="cls-12" d="M244.22,98c-19.76-.61-39.51-1.6-59.26-1.7-14.26-.07-28.53,1.06-42.8,1.65a28.19,28.19,0,0,1,2.46-1.62c18.81-9.62,38.9-12.91,59.73-10.91C218.41,86.77,232,90.53,244.22,98Z"/><path class="cls-13" d="M254.87,280.63C265.3,275,273,266.31,279.91,257c15.79-21.35,22.78-45.48,21-71.93-1-15.17-4.9-29.69-12.59-43-.42-2.54-.85-5.09-1.32-7.9,12.51,6.76,21.6,52.35,16.64,79.09-8.09,43.63-42.21,74-64.41,80.64l14-11.82,1.7-1.42Z"/><path class="cls-13" d="M97,144C86.6,162.6,83.66,182.79,85.62,203.65c2.59,27.43,14.67,50.37,34.9,69,1.58,1.45,3.78,2.23,5.7,3.32v0l4,4.1L144,292.19l-.93.94c-23.79-11.84-41.23-30.09-52.45-54.35C74.1,203,80,160.31,97.46,135.34Z"/><path class="cls-13" d="M244.22,98C232,90.53,218.41,86.77,204.35,85.42c-20.83-2-40.92,1.29-59.73,10.91A28.19,28.19,0,0,0,142.16,98l-9.75,1.34c31.68-23.94,86.38-25.67,121.77.13Z"/><path class="cls-14" d="M223.53,287.35c.74,2,.32,5,3.93,4.66l-34.41,16.53.09-7.49,19-8.15Z"/><path class="cls-14" d="M243.65,106c-4.9.76.43,2.89-.56,4.17l-37-2.23-6.9-.16-5,0L193,103.3q24.68,1,49.36,2.07C242.81,105.39,243.22,105.81,243.65,106Z"/><path class="cls-14" d="M280.92,173q-.41-6.58-.8-13.16Q280.52,166.47,280.92,173Z"/><path class="cls-14" d="M274.34,235.17c0-2.69-1.92-6.11,2.59-7.18Z"/><path class="cls-14" d="M280,157.07l-.81-9Z"/><path class="cls-14" d="M280.15,203.36q.38-5.64.76-11.28Q280.54,197.72,280.15,203.36Z"/><path class="cls-14" d="M279.11,216.1l.78-7Z"/><path class="cls-14" d="M253.29,107.06l-6.19-.81Z"/><path class="cls-12" d="M130.25,280.05l-4-4.1Z"/><path class="cls-14" d="M278.15,222.19c.27-1.39.53-2.79.8-4.19C278.68,219.4,278.42,220.8,278.15,222.19Z"/><path class="cls-14" d="M276.12,127.17c-.34-1.73-.67-3.46-1-5.2C275.45,123.71,275.78,125.44,276.12,127.17Z"/><path class="cls-14" d="M249.05,274.75l2.8-2.83C250.91,272.86,250,273.81,249.05,274.75Z"/><path class="cls-14" d="M279,145.09c-.27-1.74-.55-3.48-.82-5.21C278.41,141.61,278.69,143.35,279,145.09Z"/><path class="cls-14" d="M261.17,108.13l-4.06-.81Z"/><path class="cls-14" d="M277.91,137.09c-.27-1.36-.53-2.73-.8-4.1C277.38,134.36,277.64,135.73,277.91,137.09Z"/><path class="cls-14" d="M267.21,109.1l-4.12-.81Z"/><path class="cls-14" d="M274.93,120.13c-.28-1-.56-2-.85-3C274.37,118.1,274.65,119.11,274.93,120.13Z"/><path class="cls-14" d="M245.09,278.58l1.79-1.72Z"/><path class="cls-14" d="M276.93,131.11c-.25-1.13-.5-2.27-.76-3.41C276.43,128.84,276.68,130,276.93,131.11Z"/><path class="cls-14" d="M270.17,245.24l1.29-3Z"/><path class="cls-12" d="M254.88,280.65l-1.7,1.42Z"/><path class="cls-14" d="M274,116.14c-.25-.83-.5-1.65-.76-2.48C273.45,114.48,273.7,115.31,274,116.14Z"/><path class="cls-14" d="M271.61,110l-2.53-.73Z"/><path class="cls-14" d="M277.17,226.34l.72-2.32Z"/><path class="cls-14" d="M257.07,265.79l1.32-1.77Z"/><path class="cls-14" d="M266.19,252.42c.3-.49.61-1,.91-1.45C266.8,251.45,266.49,251.93,266.19,252.42Z"/><path class="cls-14" d="M265.16,254.2,266,253Z"/><path class="cls-14" d="M248.08,275.72l.83-.81Z"/><path class="cls-14" d="M274.22,236l-.56-.58.81-.07A.49.49,0,0,1,274.22,236Z"/><path class="cls-14" d="M232.15,288.94l1.23-1Z"/><path class="cls-14" d="M231.15,289.7l1-.76Z"/><path class="cls-14" d="M229.14,291l1.36-1Z"/><path class="cls-14" d="M271.36,242.26l.78-1.26Z"/><path class="cls-4" d="M67.24,117.28l-.52-.83,1.07.3Z"/><path class="cls-15" d="M320,123.37l9.13-4.55a95,95,0,0,1,2.45,10.76c.08.6-3.38,2.51-3.74,2.18A111.85,111.85,0,0,1,320,123.37Z"/><path class="cls-15" d="M87.78,96.49c-1.29-2.92-2.39-5.42-4-9L93,90.92Z"/><path class="cls-13" d="M333.25,190.38c-2.2,1.33-3.36,2.6-4.37,2.49s-2-1.57-2.93-2.44c.87-.79,1.72-2.18,2.63-2.22C329.72,188.16,330.9,189.22,333.25,190.38Z"/><path class="cls-16" d="M206.1,108l37,2.23a.47.47,0,0,0,.69.07l1.11.21,3.24.41,1.93.18,2.54.22L256,112l2.75.23,4.24.8,1.74.21,3.24,1-.1-.11,1,3.28c.14.91.28,1.82.43,2.73l.54,1.52,0,.37q1,6.21,2.05,12.42c.07.87.15,1.75.22,2.63.25,1.49.51,3,.77,4.47.16,2.19.31,4.38.47,6.57l.57,4.17c.08,1.92.17,3.84.25,5.77.11,1.6.23,3.2.35,4.8q.29,8.58.59,17.14v1q-.12,7.22-.25,14.44l-1.84.7h-34l-3-.24-.32-.12c-1.76-3.25-.86-6.12,1.29-8.79l0-.05.82-1,.11-.14,3.16-4.7-.94-.9-9.09,2-2.16.23h-7.55l-.51-1.66,23.69-8.4c-6.32-8-5.67-16.7-5.53-25.35l1-3.8-18.91,5.76V129.7l-11.56,5.42c.14.38.29.76.44,1.14l9.16-2.21V177.6c-6.55-6.47-8.63-14.06-8.16-22.47,0-1,0-2,0-3q-2.31-7-4.61-14c-.06-.67-.11-1.33-.17-2l-3.05-12c-.48-.6-1.06-1.76-1.43-1.7-2.19.37-4.33,1-6.49,1.59v-8.2l-11.4,5.24.45,1.2,8.66-2.11c.11,1.82.2,3.43.3,5-1.84.68-3.66,1.41-5.51,2-7.89,2.67-10,8.73-5.63,16a5.88,5.88,0,0,0,.1.94h0l-1,1.05c-.57,3.28-1.15,6.56-1.72,9.84l-4.26,0,0-.06-.62-.9q-1.12-4.45-2.23-8.92c-.53-.66-1.17-1.94-1.57-1.87a42.24,42.24,0,0,0-5.42,1.56V135l-11.51,4.74.35,1.08,8.91-1.75v7l-9.95,4-2.92.93a50.54,50.54,0,0,0-21.88,25c.29,1.5.09,3.55,1,4.36,1.19,1.06,3.25,1.14,4.94,1.65,8.58,2.9,10.05,4.19,15.24,13.58H111.4c-.28-4.35-1.12-8.79-.76-13.14,1.75-21,3.86-41.89,5.77-62.83.37-4.09,2.41-5.81,6.44-6.44A416,416,0,0,1,189.26,108c1.65,0,3.3-.14,5-.22l5,0Z"/><path class="cls-12" d="M191.17,300.25c-36.68-12.56-64.93-34.07-76.15-73-2-7.07-2-14.74-2.9-22.14,2.38,2.46,4.92,4.78,7.1,7.4,10.44,12.52,20.7,25.19,31.17,37.68,6.44,7.68,13.15,15.14,19.74,22.7.46,3.08-.93,7.69,5.1,6.15a30.32,30.32,0,0,0,1.94,3.32C181.81,288.34,186.5,294.28,191.17,300.25Z"/><path class="cls-17" d="M170.13,272.88c-6.59-7.56-13.3-15-19.74-22.7-10.47-12.49-20.73-25.16-31.17-37.68-2.18-2.62-4.72-4.94-7.1-7.4h.11c0-.58,0-1.17,0-1.76l26-.16c6.56,8,13.21,16,19.63,24.1,2.07,2.61,3.53,5.7,5.28,8.57-1.7,1.42-5,3.23-4.81,4.19,1.06,4.46,3.21,8.64,4.79,13C165.57,259.62,167.82,266.26,170.13,272.88Z"/><path class="cls-18" d="M163.2,235.86c-1.75-2.87-3.21-6-5.28-8.57-6.42-8.13-13.07-16.08-19.63-24.1l29.87,0a14.37,14.37,0,0,0,1.32,2.56c4.23,5.19,8.52,10.33,12.79,15.49-3.06,4.24-6.5,7.89-11.88,9.3-1.42.37-2.44,2.1-3.73,3.09C165.57,234.45,164.36,235.12,163.2,235.86Z"/><path class="cls-17" d="M191.17,300.25c-4.67-6-9.36-11.91-14-17.9a30.32,30.32,0,0,1-1.94-3.32l24.91.05,12,13.82-19,8.15Z"/><path class="cls-17" d="M182.27,221.22c-4.27-5.16-8.56-10.3-12.79-15.49a14.37,14.37,0,0,1-1.32-2.56l25-.34.05.34c3.89,4.69,7.92,9.28,11.64,14.11,3,3.86,5.59,8,8.37,12-5.68-4.37-11.79-8.31-16.88-13.29-3-3-4.23-3-6.88-.06C187.49,218.11,184.68,219.49,182.27,221.22Z"/><path class="cls-19" d="M134.32,182c-1.69-.51-3.75-.59-4.94-1.65-.91-.81-.71-2.86-1-4.36l11,.43,5,1c1-7.1,2-13.7,2.93-20.29q1.49-2.53,3-5.05l1.53.07-.87,7.9c-.09.11-.29.26-.26.32a3.77,3.77,0,0,0,.39.67l1.23,2.76c-.06,1-.12,2-.19,3.07-2.22,5.62-.83,10.51,3,14.9v2l-1.95.26-6-1Z"/><path class="cls-20" d="M222.78,195.92l-2.69.3h-14l-13.81.05H151.43c2.13-4.44,5.33-3.27,8.1-3,3.26.28,6.5.85,9.74,1.29l3.92-.47,2.18-.66.18-.09.93-.72.26-.15,1.51-.67,1.89,0,4,.44h0l4.85,1.11,2.22.58,4,.13,7,.14,3.95-1.07A21.8,21.8,0,0,1,222.78,195.92Z"/><path class="cls-14" d="M192.3,196.28l13.81-.05-13,.81Z"/><path class="cls-12" d="M112.25,203.35c0,.59,0,1.18,0,1.76C112.24,204.53,112.24,203.94,112.25,203.35Z"/><path class="cls-14" d="M193.2,202l1,.75-1,.4-.05-.34C193.15,202.56,193.17,202.29,193.2,202Z"/><path class="cls-18" d="M193.18,203.17l1-.4,29,.4L261,249.77l0,1.1-.71,1a.68.68,0,0,0-.37.71l-.87,1.33-3,4.22-.66.72L247.17,268c-5.72-6.76-11.39-13.56-17.22-20.22-1.33-1.52-3.22-2.55-4.85-3.81.39-2.14,1.8-5.54,1-6.2-4-3.21-8.54-5.7-12.9-8.45-2.78-4-5.39-8.17-8.37-12C201.1,212.45,197.07,207.86,193.18,203.17Z"/><path class="cls-17" d="M261,249.77l-37.86-46.6,5-.38h16l6,.37c2.52,3.27,4.9,6.65,7.58,9.77,4.18,4.84,8.56,9.51,12.86,14.25-.41,1.91-.83,3.83-1.24,5.74-.79,2.18-1.59,4.35-2.39,6.53-.27.5-.55,1-.82,1.51a.39.39,0,0,0-.17.55l-.71,1.42Z"/><path class="cls-21" d="M211.07,155.13c-.47,8.41,1.61,16,8.16,22.47V158.1q.92-3.93,1.84-7.88V174.1l1.67.49q8.17-13.74,16.36-27.49c-.14,8.65-.79,17.39,5.53,25.35l-23.69,8.4.51,1.66H229l-12.89,1.43,3-1.7c-.06-.57-.13-1.14-.2-1.71l-23.46-2.1V186l-2.8-.08v-5.8l-7.44,1.94c1.89-1.77,3.5-4.13,5.73-5.21C200.49,172.17,207.37,165.17,211.07,155.13Z"/><path class="cls-17" d="M225.1,244c1.63,1.26,3.52,2.29,4.85,3.81,5.83,6.66,11.5,13.46,17.22,20.22L242,273.75l-1.17,1,0-.1-3.76,3.24L232.21,281,219,265.87C217.63,257.62,224.54,251.68,225.1,244Z"/><path class="cls-12" d="M219,265.87,232.21,281l-2.05,2.1-2.35,1.7-1.7,1.1-2.33,1.58-.25-.1-11.35,5.55-12-13.82c4,.08,8,.32,11.94.14,1.06-.05,3-1.51,2.94-2.11C214.42,272.61,216.92,269.35,219,265.87Z"/><path class="cls-12" d="M270.54,227.18c-4.3-4.74-8.68-9.41-12.86-14.25-2.68-3.12-5.06-6.5-7.58-9.77l23-.36a1.9,1.9,0,0,0,.92.33l-.05,0a2.19,2.19,0,0,0,.25.94c0,1-.07,2-.11,3,0,.33,0,.67-.05,1l-.09,1.73-.54,3.16-.21,2.13c-.08,1-.15,2-.23,3l-.06,1.45C272.11,222,271.33,224.61,270.54,227.18Z"/><path class="cls-19" d="M185.18,182.05l7.44-1.94v5.8L170,185.57l-3.88-.25-.79-1.38c.1-1.56.21-3.13.32-4.82h15.59Z"/><path class="cls-19" d="M195.42,186v-7.56l23.46,2.1c.07.57.14,1.14.2,1.71l-3,1.7-5,.35-2.32.61-.34-.08-.33.13Z"/><path class="cls-10" d="M195.42,186l12.68-1c-1.6.69-3.19,2-4.8,2-10.12.17-20.24.1-30.36,0-1,0-1.93-.87-2.9-1.34l22.58.34Z"/><path class="cls-22" d="M155.19,183.78c0-.66,0-1.31,0-2l1-.78,6.84-1.8V185l-3.77-.09-1.78-.2Z"/><path class="cls-14" d="M244.09,202.79h-16c4.31-.59,8.62-1.3,13-1.66C242,201.05,243.08,202.21,244.09,202.79Z"/><path class="cls-21" d="M222.78,195.92a21.8,21.8,0,0,0-16.64-2.86c2.37-.67,4.88-2.17,7.08-1.81a52.1,52.1,0,0,1,13.93,4.67Z"/><path class="cls-21" d="M231.16,182.28l9.09-2,.94.9-3.16,4.7c-.92-.94-1.7-2.17-2.81-2.74A15.19,15.19,0,0,0,231.16,182.28Z"/><path class="cls-14" d="M270.54,227.18c.79-2.57,1.57-5.14,2.36-7.71l-3.6,13.45C269.71,231,270.13,229.09,270.54,227.18Z"/><path class="cls-21" d="M237.06,187.05c-2.15,2.67-3.05,5.54-1.29,8.79-.89-1.41-2.76-3.1-2.45-4.17C233.83,189.92,235.74,188.57,237.06,187.05Z"/><path class="cls-21" d="M202.19,194.13l-7-.14Z"/><path class="cls-14" d="M271.93,134.52q-1-6.21-2.05-12.42Q270.9,128.31,271.93,134.52Z"/><path class="cls-14" d="M237.13,277.91l3.76-3.24C241.63,278.06,239.36,278,237.13,277.91Z"/><path class="cls-10" d="M159.26,184.92,163,185l2.34-1.07.79,1.38Z"/><path class="cls-10" d="M189,193.28l-4.85-1.11,5-.09Z"/><path class="cls-14" d="M274.56,162.93c-.12-1.6-.24-3.2-.35-4.8C274.32,159.73,274.44,161.33,274.56,162.93Z"/><path class="cls-21" d="M189,193.28l.15-1.2,2.07,1.78Z"/><path class="cls-10" d="M184.1,192.18l-4-.44Z"/><path class="cls-14" d="M223.78,287.45l2.33-1.58Z"/><path class="cls-14" d="M274,152.36l-.57-4.17Z"/><path class="cls-14" d="M263,113.06l-4.24-.8Z"/><path class="cls-10" d="M155.19,183.78l2.29.94-4.24-.68Z"/><path class="cls-14" d="M272.92,141.62c-.26-1.49-.52-3-.77-4.47C272.41,138.64,272.66,140.13,272.92,141.62Z"/><path class="cls-14" d="M274.19,204a2.19,2.19,0,0,1-.25-.94h2.25l.05.64Z"/><path class="cls-14" d="M268.93,117.48l-1-3.28Z"/><path class="cls-14" d="M273.4,212.91l.54-3.16Z"/><path class="cls-14" d="M273,218c.08-1,.15-2,.23-3C273.11,216,273,217,273,218Z"/><path class="cls-14" d="M268,114.31l-3.24-1Z"/><path class="cls-14" d="M227.81,284.77l2.35-1.7Z"/><path class="cls-14" d="M236.09,196l3,.24Z"/><path class="cls-14" d="M217.16,196.23h0Z"/><path class="cls-14" d="M256,112l-3.44-.73Z"/><path class="cls-10" d="M178.25,191.78l-1.51.67Z"/><path class="cls-10" d="M175.37,193.41l-2.18.66Z"/><path class="cls-21" d="M208.77,184.9l2.32-.61Z"/><path class="cls-14" d="M273.07,196.19l1.84-.7Z"/><path class="cls-14" d="M250.06,111.08l-1.93-.18Z"/><path class="cls-14" d="M259.08,253.94l.88-1.33C259.66,253.05,259.37,253.5,259.08,253.94Z"/><path class="cls-14" d="M275.16,181.05v-1a3.77,3.77,0,0,1,.34.7S275.28,181,275.16,181.05Z"/><path class="cls-14" d="M255.45,258.88l.66-.72A1.54,1.54,0,0,1,255.45,258.88Z"/><path class="cls-14" d="M260.32,251.9l.71-1Z"/><path class="cls-14" d="M274,208c0-.33,0-.67.05-1C274.06,207.35,274.05,207.69,274,208Z"/><path class="cls-14" d="M244.89,110.49l-1.11-.21Z"/><path class="cls-14" d="M240.87,274.77l1.17-1Z"/><path class="cls-14" d="M274,203.13a1.9,1.9,0,0,1-.92-.33Z"/><path class="cls-14" d="M265.21,242.93l.71-1.42Z"/><path class="cls-14" d="M266.09,241c.27-.51.55-1,.82-1.51C266.64,240,266.36,240.45,266.09,241Z"/><path class="cls-21" d="M237.92,186l-.82,1Z"/><path class="cls-10" d="M176.48,192.6l-.93.72Z"/><path class="cls-14" d="M269.9,121.73l-.54-1.52Z"/><path class="cls-10" d="M206.1,108l-6.9-.16Z"/><path class="cls-23" d="M185.18,182.05q-2-1.47-3.91-2.93c-.38-1.47-.76-2.93-1.15-4.4-.16-2.25-.33-4.5-.49-6.75l.75-2.58c2-1.32,3.88-3,6.07-3.88,7.52-3,15.14-5.7,22.73-8.52l1.84-.87c0,1,0,2,0,3-3.7,10-10.58,17-20.16,21.71C188.68,177.92,187.07,180.28,185.18,182.05Z"/><path class="cls-23" d="M239.1,147.1q-8.17,13.76-16.36,27.49l-1.67-.49V150.22l.12-1.16,18.91-5.76Z"/><path class="cls-23" d="M206.24,136.13c.06.67.11,1.33.16,2-4.57,8-11.83,12.91-19.6,17.35-1.68,1-2.62,3.21-3.89,4.86l-1.49-.6-.69-1.68-.52-1h0c-.24-.67-.48-1.34-.71-2,.57-3.28,1.15-6.56,1.72-9.84l1-1.05h0l22.68-7.84Z"/><path class="cls-23" d="M182.14,143.23c-4.4-7.27-2.26-13.33,5.63-16,1.85-.63,3.67-1.36,5.51-2l2-1.16c2.16-.56,4.3-1.22,6.49-1.59.37-.06,1,1.1,1.43,1.7-5.8,4.74-11.62,9.45-17.35,14.27-.78.65-1.09,1.86-1.62,2.82l0-.11-1.07,1.14Z"/><path class="cls-23" d="M151,160.1c.29-2.63.58-5.27.86-7.9.44-.71.88-1.41,1.33-2.11l9.95-4,2.25-1.19a42.24,42.24,0,0,1,5.42-1.56c.4-.07,1,1.21,1.57,1.87-6.06,5.17-12.16,10.29-18.13,15.56-.71.63-.68,2.09-1,3.16a2.12,2.12,0,0,1-.9-.07l-1.23-2.76C151.08,160.76,151,160.43,151,160.1Z"/><path class="cls-10" d="M150.33,152.13q-1.5,2.52-3,5.05c-.41-.11-1.09-.41-1.17-.29-4,5.9-8.31,11.74-6.76,19.57l-11-.43a50.54,50.54,0,0,1,21.88-25C150.28,151.39,150.3,151.76,150.33,152.13Z"/><path class="cls-24" d="M182.91,160.34c1.27-1.65,2.21-3.9,3.89-4.86,7.77-4.44,15-9.34,19.6-17.35l4.62,14-1.84.87A44.41,44.41,0,0,0,182.91,160.34Z"/><path class="cls-24" d="M153.25,163.92c.31-1.07.28-2.53,1-3.16,6-5.27,12.07-10.39,18.13-15.56q1.11,4.47,2.23,8.92l.62.9,0,.06c.32,1,.63,2,.94,3.06l-5.07,1.05C164.52,158.34,158.69,160.41,153.25,163.92Z"/><path class="cls-21" d="M184.22,141.23c.53-1,.84-2.17,1.62-2.82,5.73-4.82,11.55-9.53,17.35-14.27l3.05,12-1.32.2Z"/><path class="cls-25" d="M221.19,149.06l-.12,1.16q-.93,3.94-1.84,7.88v-24l-9.16,2.21c-.15-.38-.3-.76-.44-1.14l11.56-5.42Z"/><path class="cls-22" d="M184.22,141.23l20.7-4.9-22.68,7.84a5.88,5.88,0,0,1-.1-.94l1-1,1.07-1.14Z"/><path class="cls-25" d="M165.38,144.89l-2.25,1.19v-7l-8.91,1.75-.35-1.08L165.38,135Z"/><path class="cls-25" d="M195.27,124l-2,1.16c-.1-1.6-.19-3.21-.3-5l-8.66,2.11-.45-1.2,11.4-5.24Z"/><path class="cls-20" d="M176.19,158.14l-.94-3.06,4.26,0c.23.68.47,1.35.71,2l-3.31,2.7a.82.82,0,0,1-.69.29Z"/><path class="cls-22" d="M150.33,152.13c0-.37-.05-.74-.07-1.11l2.92-.93c-.45.7-.89,1.4-1.33,2.11Z"/><path class="cls-22" d="M182.24,144.16l-1,1.05Z"/><path class="cls-20" d="M175.22,155l-.62-.9Z"/><path class="cls-26" d="M219,265.87c-2.05,3.48-4.55,6.74-3.95,11.24.08.6-1.88,2.06-2.94,2.11-4,.18-8-.06-11.94-.14L175.23,279c-6,1.54-4.64-3.07-5.1-6.15-2.31-6.62-4.56-13.26-6.95-19.85-1.58-4.34-3.73-8.52-4.79-13-.23-1,3.11-2.77,4.81-4.19,1.16-.74,2.37-1.41,3.46-2.25,1.29-1,2.31-2.72,3.73-3.09,5.38-1.41,8.82-5.06,11.88-9.3,2.41-1.73,5.22-3.11,7.16-5.26,2.65-3,3.87-2.9,6.88.06,5.09,5,11.2,8.92,16.88,13.29,4.36,2.75,8.92,5.24,12.9,8.45.81.66-.6,4.06-1,6.2C224.54,251.68,217.63,257.62,219,265.87Zm-26.92-35.12c-1.16-2.17-1.9-5.61-3.59-6.16s-4.37,1.69-6.44,3a69,69,0,0,0-7.16,5.18c-1.75,1.44-4.42,3.12-4.52,4.82s2.46,3.59,3.86,5.39l-.28,1.64c-2.24.48-5.44.26-6.44,1.64s0,4.41.53,6.61c.8,3.14,2.5,6.11,3,9.28.82,5.7,2.64,7,8.3,4.82l1.22,1.43c.19,5.45,1.87,6.67,6.85,6.07a51.22,51.22,0,0,1,11.61,0c3.28.36,5.46-.37,6.6-3.54l1.94-3.26c5.78.61,7-.59,7.71-6.06A21.58,21.58,0,0,1,218,252.9c2.53-4,2.24-6.68-1.84-9,2.28-1.42,7.61.87,6.16-5.08L216.23,237c-1.52-1.38-3-2.87-4.6-4.13-2.69-2.06-5.81-3.66-8.18-6-4-4-6.51-3.88-9.52,1.18l.24,6v0c-.68,2.33-1.35,4.66-2,7-.06-2.21-.13-4.42-.19-6.63C192,233.13,192,231.94,192.05,230.75Z"/><path class="cls-23" d="M176.19,158.14l0,1.92A31.43,31.43,0,0,1,160.75,176c-1.89,1-3.06,3.35-4.56,5.09l-1,.78c-3.85-4.39-5.24-9.28-3-14.9,1.49-.66,3-1.36,4.46-2,4.83-1.94,9.67-3.85,14.5-5.77Z"/><path class="cls-24" d="M139.42,176.46c-1.55-7.83,2.73-13.67,6.76-19.57.08-.12.76.18,1.17.29-.95,6.59-1.9,13.19-2.93,20.29Z"/><path class="cls-22" d="M171.12,159.19c-4.83,1.92-9.67,3.83-14.5,5.77-1.5.6-3,1.3-4.46,2,.07-1,.13-2,.19-3.07a2.12,2.12,0,0,0,.9.07C158.69,160.41,164.52,158.34,171.12,159.19Z"/><path class="cls-22" d="M151,160.1c0,.33.09.66.13,1a3.77,3.77,0,0,1-.39-.67C150.7,160.36,150.9,160.21,151,160.1Z"/><path class="cls-24" d="M156.19,181c1.5-1.74,2.67-4.14,4.56-5.09a31.43,31.43,0,0,0,15.47-15.89.82.82,0,0,0,.69-.29c0,2.16,0,4.31,0,6.47-.06.11-.21.25-.18.31a4.49,4.49,0,0,0,.38.62,1,1,0,0,0,.16.89q1.41,3.33,2.81,6.66c.39,1.47.77,2.93,1.15,4.4H165.69c-.11,1.69-.22,3.26-.32,4.82L163,185v-5.77Z"/><path class="cls-20" d="M182.91,160.34A44.41,44.41,0,0,1,209.18,153c-7.59,2.82-15.21,5.53-22.73,8.52-2.19.88-4,2.56-6.07,3.87.35-1.88.69-3.76,1-5.64Z"/><path class="cls-16" d="M181.42,159.74c-.35,1.88-.69,3.76-1,5.64l-.75,2.59-2.32.09a1,1,0,0,1-.16-.89,1.11,1.11,0,0,0-.2-.93c0-2.16,0-4.31,0-6.47l3.31-2.7h0l.52,1Z"/><path class="cls-20" d="M177.31,168.06l2.32-.09c.16,2.25.33,4.5.49,6.75Q178.73,171.39,177.31,168.06Z"/><path class="cls-20" d="M180.73,158.06l-.52-1Z"/><path class="cls-21" d="M184.25,141.12l-1.07,1.14Z"/><path class="cls-27" d="M207.49,267.68c-.65,1.08-1.3,2.17-1.94,3.26L204,266c-4.57,3.85-17.88,3.8-21.6.25l-1.88,2.18L179.27,267l1.6-2.84c-5,.41-4.77-2.88-5-6.12a7.2,7.2,0,0,0-1.4-4.1c-2.73-3.06-2.48-6.06-.58-9.29l.28-1.64c.91-3.54,2.33-6.51,6.51-7.28a5.32,5.32,0,0,0,2.9-2.45c2.14-3.42,5-3.94,8.44-2.48,0,1.19-.07,2.38-.11,3.57-2.24-2.68-4.27-2.53-6.51.15-1.13,1.35-2.81,2.22-4.15,3.4s-2.61,2.52-3.91,3.79c1.5,1.12,2.94,2.33,4.51,3.33a11.64,11.64,0,0,0,2.81,1c5,1.62,6.69.5,7.44-5,.68-2.32,1.35-4.65,2-7,0,2.83-.61,5.84.18,8.42a6.72,6.72,0,0,0,4.67,4c2.28.2,4.79-1.15,7-2.22a4.08,4.08,0,0,0,2.11-2.89c0-1-1.23-2.1-2.16-2.85-1.9-1.54-4.24-2.6-5.89-4.34-2.15-2.26-3.91-2-5.92-.11l-.24-6c.53.75,1.28,2.22,1.57,2.13,3.2-.95,4.8.83,6.55,3.08,1,1.33,3,1.87,4.38,3,2,1.66,3.75,3.54,6.47,6.14l3.33-5.38,6.06,1.91c1.45,5.95-3.88,3.66-6.16,5.08l-4.35.85c2.59,4.61-1.65,17.45-6.43,20.21Zm1.59-21.76c-3.16,1-5.18,1.65-7.25,2.18-2.84.72-5.63,2.56-4.32,5.26,1.6,3.29,4.86,5.8,7.56,8.49a6.15,6.15,0,0,0,2.7-2.21,44.16,44.16,0,0,0,2.92-9.18C210.93,249.07,209.65,247.41,209.08,245.92Zm-18.14,5.22c-1.93-.89-3.53-1.73-5.21-2.37a32.47,32.47,0,0,0-6.14-2,5.13,5.13,0,0,0-3.87.9c-.61.58-.29,2.42,0,3.59a38.34,38.34,0,0,0,2.53,7.9c.61,1.21,3.48,2.7,3.71,2.47C184.57,259,186.88,256.05,190.94,251.14Zm11,13.25c-1.75-2.6-3-4.29-4.09-6.09-1.55-2.63-4-5.21-6.61-3.23-2.76,2.14-4.28,5.93-6.09,9.14a7.24,7.24,0,0,0,3.4,2.38,37,37,0,0,0,8.67,0C198.69,266.4,200.05,265.3,201.94,264.39Zm-4.86-15c-2.06-1.13-3.25-2.28-4.39-2.23-.86,0-2.51,1.91-2.32,2.42.41,1.12,1.72,2.56,2.75,2.63S195.22,250.8,197.08,249.39Z"/><path class="cls-28" d="M180.49,268.38l1.88-2.18c3.72,3.55,17,3.6,21.6-.25l1.58,5c-1.14,3.17-3.32,3.9-6.6,3.54a51.22,51.22,0,0,0-11.61,0C182.36,275.05,180.68,273.83,180.49,268.38Z"/><path class="cls-28" d="M207.49,267.68,205.35,265c4.78-2.76,9-15.6,6.43-20.21l4.35-.85c4.08,2.28,4.37,5,1.84,9a21.58,21.58,0,0,0-2.77,8.72C214.5,267.09,213.27,268.29,207.49,267.68Z"/><path class="cls-28" d="M192.05,230.75c-3.48-1.46-6.3-.94-8.44,2.48a5.32,5.32,0,0,1-2.9,2.45c-4.18.77-5.6,3.74-6.51,7.28-1.4-1.8-4-3.67-3.86-5.39s2.77-3.38,4.52-4.82a69,69,0,0,1,7.16-5.18c2.07-1.29,4.78-3.52,6.44-3S190.89,228.58,192.05,230.75Z"/><path class="cls-28" d="M192.13,241c-.75,5.49-2.42,6.61-7.44,5a11.64,11.64,0,0,1-2.81-1c-1.57-1-3-2.21-4.51-3.33,1.3-1.27,2.55-2.59,3.91-3.79s3-2.05,4.15-3.4c2.24-2.68,4.27-2.83,6.51-.15C192,236.54,192.07,238.75,192.13,241Z"/><path class="cls-28" d="M173.92,244.6c-1.9,3.23-2.15,6.23.58,9.29a7.2,7.2,0,0,1,1.4,4.1c.2,3.24,0,6.53,5,6.12l-1.6,2.84c-5.66,2.15-7.48.88-8.3-4.82-.46-3.17-2.16-6.14-3-9.28-.56-2.2-1.52-5.24-.53-6.61S171.68,245.08,173.92,244.6Z"/><path class="cls-28" d="M216.23,237l-3.33,5.38c-2.72-2.6-4.5-4.48-6.47-6.14-1.36-1.14-3.34-1.68-4.38-3-1.75-2.25-3.35-4-6.55-3.08-.29.09-1-1.38-1.57-2.13,3-5.06,5.53-5.19,9.52-1.18,2.37,2.37,5.49,4,8.18,6C213.26,234.08,214.71,235.57,216.23,237Z"/><path class="cls-20" d="M177,166.24a1.11,1.11,0,0,1,.2.93,4.49,4.49,0,0,1-.38-.62C176.74,166.49,176.89,166.35,177,166.24Z"/><path class="cls-29" d="M209.08,245.92c.57,1.49,1.85,3.15,1.61,4.54a44.16,44.16,0,0,1-2.92,9.18,6.15,6.15,0,0,1-2.7,2.21c-2.7-2.69-6-5.2-7.56-8.49-1.31-2.7,1.48-4.54,4.32-5.26C203.9,247.57,205.92,246.88,209.08,245.92Z"/><path class="cls-29" d="M190.94,251.14c-4.06,4.91-6.37,7.87-9,10.53-.23.23-3.1-1.26-3.71-2.47a38.34,38.34,0,0,1-2.53-7.9c-.29-1.17-.61-3,0-3.59a5.13,5.13,0,0,1,3.87-.9,32.47,32.47,0,0,1,6.14,2C187.41,249.41,189,250.25,190.94,251.14Z"/><path class="cls-29" d="M201.94,264.39c-1.89.91-3.25,2-4.72,2.18a37,37,0,0,1-8.67,0,7.24,7.24,0,0,1-3.4-2.38c1.81-3.21,3.33-7,6.09-9.14,2.56-2,5.06.6,6.61,3.23C198.92,260.1,200.19,261.79,201.94,264.39Z"/><path class="cls-29" d="M194.17,234c2-1.91,3.77-2.15,5.92.11,1.65,1.74,4,2.8,5.89,4.34.93.75,2.15,1.88,2.16,2.85a4.08,4.08,0,0,1-2.11,2.89c-2.23,1.07-4.74,2.42-7,2.22a6.72,6.72,0,0,1-4.67-4c-.79-2.58-.19-5.59-.18-8.42Z"/><path class="cls-25" d="M197.08,249.39c-1.86,1.41-3,2.89-4,2.82s-2.34-1.51-2.75-2.63c-.19-.51,1.46-2.39,2.32-2.42C193.83,247.11,195,248.26,197.08,249.39Z"/></g></g></svg>